{"title":"MotoGP 2015 Round 02 - Moto2 RACE - Austin 720p","uid":11812490,"size":1386365448,"categoryP":"video","categoryS":"hd___tv_shows","magnet":"?xt=urn:btih:ccda0817be1a86392fb43fd3f34b56c4b49cd5c2&amp;dn=MotoGP+2015+Round+02+-+Moto2+RACE+-+Austin+720p&amp;tr=udp%3A%2F%2Ftracker.openbittorrent.com%3A80&amp;tr=udp%3A%2F%2Fopen.demonii.com%3A1337&amp;tr=udp%3A%2F%2Ftracker.coppersurfer.tk%3A6969&amp;tr=udp%3A%2F%2Fexodus.desync.com%3A6969","seeders":21,"leechers":2,"uploader":"vickey1992","files":1,"time":1428938057,"description":"MotoGP 2015 Round 02 - Moto2 RACE - Austin 720p\n\nOfficial MotoGP.com feed (English).\n\nStream #0:0: Video: h264 (Main), yuv420p, 1280x720 [SAR 1:1 DAR 16:9]\n2305 kb/s, 25 fps, 25 tbr, 1k tbn, 50 tbc\n\nStream #0:1: Audio: aac (faac) , 48000 Hz, stereo, fltp, 96kbps\n\nEnjoy!","torrent":{"xt":"urn:btih:ccda0817be1a86392fb43fd3f34b56c4b49cd5c2","amp;dn":"MotoGP+2015+Round+02+-+Moto2+RACE+-+Austin+720p","amp;tr":["udp%3A%2F%2Ftracker.openbittorrent.com%3A80","udp%3A%2F%2Fopen.demonii.com%3A1337","udp%3A%2F%2Ftracker.coppersurfer.tk%3A6969","udp%3A%2F%2Fexodus.desync.com%3A6969"],"infoHash":"ccda0817be1a86392fb43fd3f34b56c4b49cd5c2","infoHashBuffer":{"type":"Buffer","data":[204,218,8,23,190,26,134,57,47,180,63,211,243,75,86,196,180,156,213,194]},"announce":[],"urlList":[]}}